# xmcd
#
# Track frame offsets: 
#        150
#        15034
#        36667
#        56169
#        84514
#        105161
#        119153
#        130060
#        146628
#        166982
#        183894
#        202224
#        217561
#
# Disc length: 3035 seconds
#
# Revision: 0
# Processed by: cddbd v1.5.2PL0 Copyright (c) Steve Scherf et al.
# Submitted via: ExactAudioCopyFreeDBPlugin 1.0
#
DISCID=af0bd90d
DTITLE=Juliette Gréco - Ca Se Traverse et C'Est Beau...
DYEAR=2012
DGENRE=Chanson
TTITLE0=C'est La La La
TTITLE1=L'homme Du Pont
TTITLE2=Sous Les Ponts De Paris
TTITLE3=Le Pont Marie
TTITLE4=Le Petit Pont
TTITLE5=Paris Se Rêve
TTITLE6=Le Pont Juliette - Guillaume Gallienne
TTITLE7=Seule Avec Toi
TTITLE8=Pont Royale
TTITLE9=La Passerelle
TTITLE10=Le Petit Auto
TTITLE11=Mirabeau Sous Le Pont
TTITLE12=Le Miroir Noir
EXTD=
EXTT0=
EXTT1=
EXTT2=
EXTT3=
EXTT4=
EXTT5=
EXTT6=
EXTT7=
EXTT8=
EXTT9=
EXTT10=
EXTT11=
EXTT12=
PLAYORDER=
